HIERARCHY
ROOT Hips
{
	OFFSET -10.056300 7.733760 -472.550000
	CHANNELS 6 Xposition Yposition Zposition Zrotation Yrotation Xrotation 
	JOINT Spine
	{
		OFFSET 0.000000 0.000000 0.000000
		CHANNELS 3 Zrotation Yrotation Xrotation
		JOINT Spine1
		{
			OFFSET 19.000000 0.000000 0.000000
			CHANNELS 3 Zrotation Yrotation Xrotation
			JOINT Neck
			{
				OFFSET 22.500000 0.600000 0.000000
				CHANNELS 3 Zrotation Yrotation Xrotation
				JOINT Head
				{
					OFFSET 14.000000 0.030878 0.000000
					CHANNELS 3 Zrotation Yrotation Xrotation
					End Site
					{
						OFFSET 17.000000 0.000000 0.000000
					}
				}
			}
			JOINT LeftShoulder
			{
				OFFSET 19.800000 3.700000 4.300000
				CHANNELS 3 Zrotation Yrotation Xrotation
				JOINT LeftArm
				{
					OFFSET 8.000000 0.000000 0.000000
					CHANNELS 3 Zrotation Yrotation Xrotation
					JOINT LeftForeArm
					{
						OFFSET 15.200000 0.000000 0.000000
						CHANNELS 3 Zrotation Yrotation Xrotation
						JOINT LeftHand
						{
							OFFSET 17.800000 0.000000 0.000000
							CHANNELS 3 Zrotation Yrotation Xrotation
							End Site
							{
								OFFSET 7.200000 0.000000 0.000000
							}
						}
					}
				}
			}
			JOINT RightShoulder
			{
				OFFSET 19.800000 3.700000 -4.300000
				CHANNELS 3 Zrotation Yrotation Xrotation
				JOINT RightArm
				{
					OFFSET 8.000000 0.000000 0.151654
					CHANNELS 3 Zrotation Yrotation Xrotation
					JOINT RightForeArm
					{
						OFFSET 15.200000 0.000000 0.000000
						CHANNELS 3 Zrotation Yrotation Xrotation
						JOINT RightHand
						{
							OFFSET 17.800000 0.000000 0.000000
							CHANNELS 3 Zrotation Yrotation Xrotation
							End Site
							{
								OFFSET 7.200000 0.000000 0.000000
							}
						}
					}
				}
			}
		}
	}
	JOINT LeftUpLeg
	{
		OFFSET 5.984250 -7.666000 4.788790
		CHANNELS 3 Zrotation Yrotation Xrotation
		JOINT LeftLeg
		{
			OFFSET 16.000000 0.000000 0.000000
			CHANNELS 3 Zrotation Yrotation Xrotation
			JOINT LeftFoot
			{
				OFFSET 18.000000 0.000000 0.000000
				CHANNELS 3 Zrotation Yrotation Xrotation
				End Site
				{
					OFFSET 0.000000 -10.800000 0.000000
				}
			}
		}
	}
	JOINT RightUpLeg
	{
		OFFSET 5.984250 -7.665980 -4.788790
		CHANNELS 3 Zrotation Yrotation Xrotation
		JOINT RightLeg
		{
			OFFSET 16.000000 0.000000 0.000000
			CHANNELS 3 Zrotation Yrotation Xrotation
			JOINT RightFoot
			{
				OFFSET 18.000000 0.000000 0.000000
				CHANNELS 3 Zrotation Yrotation Xrotation
				End Site
				{
					OFFSET 0.000000 -10.800000 0.000000
				}
			}
		}
	}
	JOINT Tail
	{
		OFFSET 6.836960 -0.722574 0.000000
		CHANNELS 3 Zrotation Yrotation Xrotation
		JOINT Tail1
		{
			OFFSET 12.000000 0.000000 0.000000
			CHANNELS 3 Zrotation Yrotation Xrotation
			End Site
			{
				OFFSET 12.000000 0.000000 0.000000
			}
		}
	}
}
MOTION
Frames: 12
Frame Time: 0.033333
0.056304 -0.434171 -0.937596 -8.200549 3.831510 -4.823808 4.747311 5.654799 7.186634 21.670727 -9.916866 12.697115 -6.248414 14.522406 24.992905 -6.248414 14.522406 24.992905 -1.533402 7.152983 0.614413 -7.465786 -0.012198 28.805197 11.228391 -0.851264 -39.120270 10.958558 5.489335 -13.692820 5.397800 9.523961 -24.366751 -17.831440 -5.474180 50.444515 -0.947704 0.601982 -45.309097 15.647885 -3.407726 -6.282573 -1.951107 1.316034 14.240135 12.625719 1.008442 5.143733 -3.243370 -3.773768 0.066151 3.180630 -9.412393 9.947424 9.970367 -11.882341 -12.787511 -14.047375 20.507278 1.149680 3.369886 12.790510 26.543745 10.442900 6.681611 -11.696365 
0.018156 -0.430395 -0.940274 -7.947660 3.068735 -4.751484 5.008115 5.935519 7.397435 21.272532 -9.611649 13.027528 -7.272122 14.331470 24.065048 -7.272122 14.331470 24.065048 -1.413995 7.021644 0.482998 -8.049664 -0.126421 28.873920 11.008026 -0.844955 -39.616512 11.296721 5.229475 -13.996349 5.362630 9.469875 -24.181705 -17.807920 -5.626602 50.124096 -0.534108 0.421841 -45.837376 15.461963 -3.560994 -7.246096 -2.534811 0.945052 13.757410 12.333919 1.967678 5.158015 -2.757626 -3.759777 -0.166332 3.353960 -9.340806 9.685355 10.137256 -11.773304 -12.975701 -14.253486 20.456507 0.681588 2.248743 12.891452 26.304272 11.309984 7.113408 -11.350951 
0.037301 -0.424834 -0.928193 -7.697802 2.305576 -4.682622 5.272172 6.215152 7.609754 20.880941 -9.304694 13.355124 -8.284358 14.123643 23.143442 -8.284358 14.123643 23.143442 -1.293750 6.890573 0.351377 -8.633677 -0.239938 28.943953 10.788881 -0.840093 -40.112774 11.638367 4.971694 -14.301217 5.326749 9.415776 -23.996679 -17.781166 -5.779978 49.803341 -0.116574 0.246515 -46.367237 15.284592 -3.716920 -8.209451 -3.109836 0.568556 13.278662 12.042228 2.926960 5.167392 -2.272086 -3.743824 -0.398680 3.526250 -9.268392 9.423625 10.302853 -11.663836 -13.163411 -14.458167 20.404177 0.214017 1.123653 12.988565 26.062502 12.187875 7.540618 -10.998106 
0.056445 -0.419273 -0.916113 -8.234153 2.407892 -4.488936 5.585520 5.802813 7.426393 20.540955 -9.935421 13.619351 -9.813077 13.900724 21.745428 -9.813077 13.900724 21.745428 -1.103247 6.962817 -0.166534 -9.239965 0.002593 29.418505 10.468048 -1.247762 -40.442413 11.341023 4.869443 -14.910536 5.476864 9.553125 -23.917381 -18.038717 -5.876424 49.797050 0.234627 -0.163886 -46.677345 14.867962 -4.116612 -8.277012 -2.982284 0.202852 12.579185 12.199390 3.889455 5.299158 -2.449459 -3.910496 -0.416842 3.155754 -9.039557 9.649862 10.787553 -10.972280 -13.620373 -14.142567 20.299549 0.264326 0.165693 13.339902 26.363657 13.106789 7.994693 -11.298316 
0.076178 -0.407654 -0.893978 -8.769682 2.512034 -4.296191 5.902436 5.391299 7.240980 20.191677 -10.563943 13.888481 -11.321875 13.640755 20.358614 -11.321875 13.640755 20.358614 -0.914675 7.036740 -0.684361 -9.836914 0.248168 29.890026 10.157066 -1.654397 -40.768360 11.047552 4.764424 -15.519128 5.627879 9.690393 -23.837603 -18.296333 -5.972900 49.791332 0.593802 -0.569874 -46.989738 14.452283 -4.516714 -8.341681 -2.840647 -0.162270 11.878848 12.363328 4.851380 5.433930 -2.626746 -4.077225 -0.434494 2.788720 -8.809482 9.874278 11.251531 -10.278642 -14.069026 -13.827683 20.194674 0.313914 -0.788611 13.694698 26.658302 14.019965 8.452865 -11.591558 
0.095910 -0.396035 -0.871843 -8.727644 3.065973 -3.856714 5.672229 4.505184 6.882879 20.186560 -11.045313 12.985958 -10.942973 14.311277 21.595507 -10.942973 14.311277 21.595507 -0.914446 6.678310 -0.483735 -10.717368 -0.126830 30.293688 9.980737 -1.545407 -40.408020 10.917692 4.764047 -14.908953 5.059144 9.491651 -23.009918 -18.254654 -6.093298 49.245819 0.231362 -0.499741 -46.658878 14.480796 -4.153520 -8.174038 -1.713145 0.344351 11.545947 12.724154 4.810669 5.362123 -3.302112 -3.770302 0.222817 2.526135 -9.095569 9.765311 11.825799 -10.357925 -14.818810 -13.450180 20.481686 0.908873 -1.053000 14.297754 26.227045 13.895158 8.485533 -11.672363 
0.063213 -0.388889 -0.868239 -8.672720 3.619830 -3.416311 5.458724 3.617049 6.529097 20.203468 -11.528192 12.080528 -10.514093 14.966665 22.844597 -10.514093 14.966665 22.844597 -0.917973 6.319874 -0.283390 -11.603801 -0.494657 30.703772 9.806554 -1.434783 -40.048096 10.787053 4.764940 -14.298787 4.476789 9.298567 -22.180861 -18.210157 -6.214048 48.700031 -0.130780 -0.427570 -46.328644 14.512454 -3.790258 -8.006349 -0.593175 0.857880 11.223205 13.085134 4.770403 5.290067 -3.966312 -3.455767 0.876013 2.264784 -9.382231 9.657524 12.403024 -10.429667 -15.569862 -13.062280 20.765018 1.508156 -1.336171 14.901737 25.789843 13.770213 8.518022 -11.753259 
0.030516 -0.381743 -0.864635 -7.716661 3.497938 -3.177483 4.511176 2.602992 6.451132 20.998817 -11.952559 9.445475 -7.272204 19.437016 26.586124 -7.272204 19.437016 26.586124 0.402047 4.821836 0.311696 -14.432530 -1.262717 31.628231 9.151580 -1.970855 -38.108654 10.689700 3.391228 -14.308447 3.589369 9.158642 -19.572493 -18.230560 -6.611167 46.919586 0.266938 -0.344105 -44.982895 14.250873 -3.221878 -6.299356 0.420239 0.466242 10.540116 12.770776 4.912428 5.223845 -4.433054 -3.908287 2.198922 2.888613 -10.501855 8.733596 12.421514 -10.398025 -16.326822 -13.208885 21.539749 2.036660 -2.243469 15.688855 25.085474 13.895484 8.985338 -11.466313 
-0.071000 -0.375931 -0.870276 -6.762189 3.372074 -2.940793 3.568481 1.587668 6.390139 21.847385 -12.342821 6.797301 -3.025444 23.527506 30.826473 -3.025444 23.527506 30.826473 1.670790 3.310946 0.869998 -17.282133 -1.981941 32.595604 8.419082 -2.503721 -36.159439 10.594851 2.017693 -14.315386 2.651767 9.050975 -16.964235 -18.224756 -7.014433 45.137089 0.679995 -0.264603 -43.636253 14.041087 -2.644599 -4.596665 1.449914 0.085760 9.850092 12.455749 5.054108 5.156806 -4.931136 -4.349300 3.527029 3.574543 -11.614117 7.789563 12.440201 -10.366023 -17.083706 -13.335792 22.315203 2.568400 -3.195822 16.471443 24.360695 14.028635 9.452537 -11.177502 
-0.172516 -0.370118 -0.875916 -4.961568 2.179513 -2.785961 2.192392 1.769758 5.731892 20.135801 -11.853584 4.311427 2.847162 32.761684 33.464092 2.847162 32.761684 33.464092 4.240951 2.345012 0.734044 -19.987473 -2.630171 32.622875 7.225081 -2.284325 -33.648857 12.296949 -0.683924 -14.604514 2.303923 7.623901 -12.209469 -16.718559 -7.659857 41.676842 0.766397 0.615214 -41.988842 14.905652 -1.314128 -2.919165 2.356085 0.333404 8.188067 10.634245 4.515595 5.437386 -5.332463 -5.009853 5.280924 4.836890 -11.815015 8.300071 9.643111 -10.081058 -16.551268 -12.342635 24.125212 3.352142 -3.875642 16.595045 23.914297 13.454825 10.135902 -11.309065 
-0.139036 -0.394877 -0.909811 -3.171972 0.982565 -2.668876 0.808465 1.936233 5.069299 18.361078 -11.434517 1.819517 9.678596 41.767303 37.549217 9.678596 41.767303 37.549217 6.815569 1.386103 0.555012 -22.696712 -3.276107 32.685699 6.051316 -2.010479 -31.145483 14.045573 -3.371819 -14.976789 1.559166 6.210155 -7.472447 -15.090855 -8.242870 38.193699 0.956087 1.520729 -40.333977 15.887287 -0.008805 -1.222173 3.243199 0.607854 6.530079 8.808127 3.986440 5.734713 -5.794963 -5.655369 7.043329 6.093917 -12.026204 8.806546 6.854005 -9.771313 -16.035503 -11.246405 25.920881 4.196373 -4.559926 16.714342 23.465927 12.874630 10.817681 -11.448321 
-0.105556 -0.419636 -0.943705 -3.314634 1.661491 -3.493156 -1.705052 -0.354936 5.139116 14.181008 -8.820508 3.371265 4.338274 43.912968 36.110424 4.338274 43.912968 36.110424 1.825182 2.761220 -0.250217 -17.250999 -3.002588 31.620836 0.950938 -0.270442 -34.457470 29.147171 -12.497886 -10.168232 3.897795 5.119737 -4.519949 -15.798375 -8.332969 36.092587 -0.360286 3.206489 -37.493519 15.750216 1.815879 -5.136492 3.567146 4.369697 4.781773 6.652088 6.201770 4.483667 -4.894430 -3.738394 8.837693 3.281037 -8.382212 11.541095 6.191888 -9.792256 -16.124617 -9.715835 21.143236 5.058365 -6.461208 14.823012 25.058079 14.874336 11.585070 -10.706706 
